<?xml version="1.0" encoding="UTF-8"?>
<svg id="Layer_2" xmlns="http://www.w3.org/2000/svg" version="1.1" viewBox="0 0 24 24">
  <!-- Generator: Adobe Illustrator 30.0.0, SVG Export Plug-In . SVG Version: 2.1.1 Build 123)  -->
  <defs>
    <style>
      .st0 {
        fill: none;
      }

      .st1 {
        fill: #fff;
      }
    </style>
  </defs>
  <path class="st1" d="M0,7.1V2.4c0-.3.3-.6.6-.6,7.4.2,13.9,2.5,20.9,3.5.6,0,1.2.2,1.8.2.3,0,.5.3.5.6v1.8c0,.3-.2.5-.5.5-7.8.4-15.4-1.6-23.2-1.2-.1,0-.2,0-.2-.2h0Z"/>
  <path class="st1" d="M7.9,14.4c0,.6,2,1.6,2.8,1.9,3.3,1.4,7.5,2.4,11.6,2.9.5,0,.9.1,1.4.1.2,0,.3.2.3.4h0c0,.3-.2.4-.4.4-.9,0-1.8-.2-2.7-.3-4.7-.6-9.6-1.8-13.4-3.6-1-.4-3.2-1.6-3.2-2.4-.1-1.1,2.3-1.3,3.6-1.4,1.9,0,3.9,0,5.8.1,2.5,0,5.1.1,7.7,0,.8,0,1.6-.1,2.3-.1.2,0,.4.2.4.4h0c0,.2-.1.3-.3.4-.4,0-.7,0-1.1,0-2.2,0-4.4,0-6.6,0-1.6,0-3.4-.2-5-.1-1.1,0-3.2.3-3.1,1.1h0Z"/>
  <path class="st1" d="M24,23.1v.4c0,.3-.2.5-.5.5h-13.4c0,0-.1,0-.2,0-2.3-.7-4.1-1.8-6-2.9-1.1-.6-2.3-1.1-3.5-1.6-.2,0-.4-.3-.4-.6v-2.4c0-.4.3-.7.7-.6,3.2.5,5.8,1.8,8.6,2.8,1.9.7,3.8,1.5,5.8,2.1,2.6.7,5.5,1.4,8.3,1.7.3,0,.5.3.5.6Z"/>
  <path class="st1" d="M24,.6v3.9c0,.4-.3.6-.7.6-6.4-.7-12.1-2.8-18.4-3.6-1.5-.2-3-.3-4.6-.4-.2,0-.3-.2-.3-.3v-.4c0-.3.2-.5.5-.5h22.9c.3,0,.6.3.6.6Z"/>
  <path class="st1" d="M24,20.6v.9c0,0,0,.2-.2.2-2.7-.2-5.3-.7-7.8-1.3-1.6-.4-3.2-.9-4.8-1.5-3.4-1.2-6.6-2.8-10.5-3.4C.3,15.3,0,15,0,14.6v-2.2c0-.4.4-.8.8-.8.1,0,.2,0,.3,0,.6,0,1.2,0,1.8,0,6.5-.1,13,.8,19.5.5.5,0,1,0,1.5,0,0,0,.2,0,.2.2h0c0,0,0,.2-.2.2-.5,0-1.1,0-1.6,0-2.1,0-4.2.1-6.3,0-2.6,0-5.2-.3-7.7-.2-1.7,0-5,.4-4.4,1.9.4,1.2,3.6,2.6,5.2,3.2,4.5,1.7,9.6,2.8,14.9,3.1,0,0,.1,0,.1.2Z"/>
  <path class="st1" d="M24,11.3h0c0,.2,0,.2-.1.2-7.8.6-15.8-.8-23.7-.3,0,0-.2,0-.2-.2v-1.6c0-.2.2-.4.4-.4,2.3,0,4.5.2,6.7.5,5.5.6,10.9,1.6,16.5,1.4.2,0,.3.1.3.3Z"/>
  <path class="st1" d="M24,9.4v.2c0,.3-.2.5-.5.5-7.9.2-15.4-2-23.2-1.8-.1,0-.3-.1-.3-.3H0c0-.2,0-.3.2-.3,7.9-.4,15.4,1.6,23.3,1.3.3,0,.5.2.5.5Z"/>
  <path class="st1" d="M4,24H.6c-.3,0-.6-.3-.6-.6v-2.1c0-.4.5-.7.9-.5,1.3.6,2.4,1.4,3.4,2.2.5.3.2,1.1-.4,1.1h0Z"/>
  <path class="st0" d="M24,14.3v3.9c0,.2-.2.4-.5.4-.5,0-1,0-1.5-.2-3-.4-6.1-1.2-8.6-2.3-.6-.3-2-1-2.1-1.5,0-.7,1.5-.9,2.3-.9,1.2,0,2.5,0,3.7,0,1.6,0,3.3,0,4.9,0,.4,0,.9,0,1.3,0,.2,0,.4.2.4.4h0Z"/>
</svg>